<svg xmlns="http://www.w3.org/2000/svg" viewBox="0 0 448.85 409.05"><defs><style>.cls-1{fill:#888;}</style></defs><g id="Laag_2" data-name="Laag 2"><g id="Laag_1-2" data-name="Laag 1"><path class="cls-1" d="M299.41,158a95.16,95.16,0,0,1-150,0H19.9v251.1H162.4V274.9h.15c0-.24,0-.48,0-.72a61.92,61.92,0,1,1,123.83,0c0,.24,0,.48,0,.72h.15V409.05H429V158Z"/><path class="cls-1" d="M224.43,3.8a95.36,95.36,0,1,0,95.36,95.36A95.36,95.36,0,0,0,224.43,3.8Zm0,25.84a68.3,68.3,0,0,1,68.1,63.19H258.16a34.12,34.12,0,0,0-67.47,0H156.32A68.31,68.31,0,0,1,224.43,29.64ZM246.63,98a22.21,22.21,0,1,1-22.2-22.21A22.2,22.2,0,0,1,246.63,98Zm-22.2,68.31a68.31,68.31,0,0,1-68.11-63.19h34.37a34.12,34.12,0,0,0,67.47,0h34.37A68.3,68.3,0,0,1,224.43,166.27Z"/><path class="cls-1" d="M129.06,99.16A95.59,95.59,0,0,1,131,80.27H16.24A16.25,16.25,0,0,0,0,96.52v7.1a16.24,16.24,0,0,0,16.24,16.24H131.38A95.37,95.37,0,0,1,129.06,99.16Z"/><path class="cls-1" d="M432.61,80.27H317.9a94.37,94.37,0,0,1-.43,39.59H432.61a16.24,16.24,0,0,0,16.24-16.24v-7.1A16.25,16.25,0,0,0,432.61,80.27Z"/><path class="cls-1" d="M396.46,0H52.39A32.49,32.49,0,0,0,19.9,32.49v7.1H150a95.22,95.22,0,0,1,148.79,0H429v-7.1A32.49,32.49,0,0,0,396.46,0Z"/></g></g></svg>