<svg xmlns="http://www.w3.org/2000/svg" viewBox="0 0 414.04 533"><defs><style>.cls-1{fill:#fff;}</style></defs><g id="Laag_2" data-name="Laag 2"><g id="Laag_1-2" data-name="Laag 1"><path class="cls-1" d="M413.92,518.57c-9.08-65-54.1-387.36-56.55-395.93a12.48,12.48,0,0,0-3.59-5.84,11,11,0,0,0-7.57-2.41H321.38a114.5,114.5,0,0,0-229,0H67.83a10.93,10.93,0,0,0-7.56,2.41,12.39,12.39,0,0,0-3.59,5.84C54.23,131.21,9.2,453.53.12,518.57a13.32,13.32,0,0,0,2.41,9.62A13.1,13.1,0,0,0,9.75,533H404.3a13.09,13.09,0,0,0,7.21-4.81A13.27,13.27,0,0,0,413.92,518.57ZM124.53,113.93a82.93,82.93,0,1,1,165.85,0c0,.15,0,.31,0,.46H124.54C124.54,114.24,124.53,114.08,124.53,113.93Z"/></g></g></svg>